<svg width="100" height="100" viewBox="0 0 100 100" fill="none" xmlns="http://www.w3.org/2000/svg">
<rect x="38.4613" y="38.4619" width="7.69231" height="7.69231" fill="#996D93"/>
<rect x="38.4613" y="38.4619" width="7.69231" height="7.69231" fill="#996D93"/>
<rect x="38.4613" y="38.4619" width="7.69231" height="7.69231" fill="#996D93"/>
<rect x="23.0768" y="38.4619" width="7.69231" height="7.69231" fill="#996D93"/>
<rect x="23.0768" y="38.4619" width="7.69231" height="7.69231" fill="#996D93"/>
<rect x="23.0768" y="38.4619" width="7.69231" height="7.69231" fill="#60425E"/>
<rect x="23.0768" y="61.5381" width="7.69231" height="7.69231" fill="#996D93"/>
<rect x="23.0768" y="61.5381" width="7.69231" height="7.69231" fill="#996D93"/>
<rect x="23.0768" y="61.5381" width="7.69231" height="7.69231" fill="#60425E"/>
<rect x="23.0768" y="76.9238" width="7.69231" height="7.69231" fill="#996D93"/>
<rect x="23.0768" y="76.9238" width="7.69231" height="7.69231" fill="#996D93"/>
<rect x="23.0768" y="76.9238" width="7.69231" height="7.69231" fill="#60425E"/>
<rect x="30.769" y="69.231" width="7.69231" height="7.69231" fill="#996D93"/>
<rect x="30.769" y="69.231" width="7.69231" height="7.69231" fill="#996D93"/>
<rect x="30.769" y="69.231" width="7.69231" height="7.69231" fill="#60425E"/>
<rect x="53.8464" y="69.231" width="7.69231" height="7.69231" fill="#996D93"/>
<rect x="53.8464" y="69.231" width="7.69231" height="7.69231" fill="#996D93"/>
<rect x="53.8464" y="69.231" width="7.69231" height="7.69231" fill="#60425E"/>
<rect x="53.8464" y="84.6143" width="7.69231" height="7.69231" fill="#996D93"/>
<rect x="53.8464" y="84.6143" width="7.69231" height="7.69231" fill="#996D93"/>
<rect x="53.8464" y="84.6143" width="7.69231" height="7.69231" fill="#60425E"/>
<rect x="15.3845" y="69.231" width="7.69231" height="7.69231" fill="#996D93"/>
<rect x="15.3845" y="69.231" width="7.69231" height="7.69231" fill="#996D93"/>
<rect x="15.3845" y="69.231" width="7.69231" height="7.69231" fill="#60425E"/>
<rect x="7.69226" y="92.3071" width="7.69231" height="7.69231" fill="#996D93"/>
<rect x="7.69226" y="92.3071" width="7.69231" height="7.69231" fill="#996D93"/>
<rect x="7.69226" y="92.3071" width="7.69231" height="7.69231" fill="#60425E"/>
<rect x="15.3845" y="30.769" width="7.69231" height="7.69231" fill="#996D93"/>
<rect x="15.3845" y="30.769" width="7.69231" height="7.69231" fill="#996D93"/>
<rect x="15.3845" y="30.769" width="7.69231" height="7.69231" fill="#60425E"/>
<rect x="23.0768" y="61.5381" width="15.3846" height="7.69231" transform="rotate(-90 23.0768 61.5381)" fill="#996D93"/>
<rect x="23.0768" y="61.5381" width="15.3846" height="7.69231" transform="rotate(-90 23.0768 61.5381)" fill="#996D93"/>
<rect x="23.0768" y="61.5381" width="15.3846" height="7.69231" transform="rotate(-90 23.0768 61.5381)" fill="#E8D3E7"/>
<rect x="23.0768" y="61.5381" width="15.3846" height="7.69231" transform="rotate(-90 23.0768 61.5381)" fill="#E8D3E7"/>
<rect x="23.0768" y="61.5381" width="15.3846" height="7.69231" transform="rotate(-90 23.0768 61.5381)" fill="#E8D3E7"/>
<rect x="23.0768" y="61.5381" width="15.3846" height="7.69231" transform="rotate(-90 23.0768 61.5381)" fill="#E8D3E7"/>
<rect x="23.0768" y="61.5381" width="15.3846" height="7.69231" transform="rotate(-90 23.0768 61.5381)" fill="#E8D3E7"/>
<rect x="38.4613" y="69.231" width="15.3846" height="7.69231" fill="#996D93"/>
<rect x="38.4613" y="69.231" width="15.3846" height="7.69231" fill="#996D93"/>
<rect x="38.4613" y="69.231" width="15.3846" height="7.69231" fill="#E8D3E7"/>
<rect x="38.4613" y="69.231" width="15.3846" height="7.69231" fill="#E8D3E7"/>
<rect x="38.4613" y="69.231" width="15.3846" height="7.69231" fill="#E8D3E7"/>
<rect x="38.4613" y="69.231" width="15.3846" height="7.69231" fill="#E8D3E7"/>
<rect x="38.4613" y="69.231" width="15.3846" height="7.69231" fill="#E8D3E7"/>
<rect x="7.69226" y="30.769" width="7.69231" height="15.3846" fill="#996D93"/>
<rect x="7.69226" y="30.769" width="7.69231" height="15.3846" fill="#996D93"/>
<rect x="7.69226" y="30.769" width="7.69231" height="15.3846" fill="#60425E"/>
<rect y="84.6143" width="7.69231" height="15.3846" fill="#996D93"/>
<rect y="84.6143" width="7.69231" height="15.3846" fill="#996D93"/>
<rect y="84.6143" width="7.69231" height="15.3846" fill="#60425E"/>
<rect x="15.3845" y="84.6143" width="7.69231" height="15.3846" fill="#996D93"/>
<rect x="15.3845" y="84.6143" width="7.69231" height="15.3846" fill="#996D93"/>
<rect x="15.3845" y="84.6143" width="7.69231" height="15.3846" fill="#60425E"/>
<rect y="84.6143" width="7.69231" height="15.3846" transform="rotate(-90 0 84.6143)" fill="#996D93"/>
<rect y="84.6143" width="7.69231" height="15.3846" transform="rotate(-90 0 84.6143)" fill="#996D93"/>
<rect y="84.6143" width="7.69231" height="15.3846" transform="rotate(-90 0 84.6143)" fill="#60425E"/>
<rect x="15.3845" y="46.1548" width="7.69231" height="15.3846" fill="#996D93"/>
<rect x="15.3845" y="46.1548" width="7.69231" height="15.3846" fill="#996D93"/>
<rect x="15.3845" y="46.1548" width="7.69231" height="15.3846" fill="#60425E"/>
<rect x="61.5387" y="76.9238" width="7.69231" height="15.3846" fill="#996D93"/>
<rect x="61.5387" y="76.9238" width="7.69231" height="15.3846" fill="#996D93"/>
<rect x="61.5387" y="76.9238" width="7.69231" height="15.3846" fill="#60425E"/>
<rect x="30.769" y="46.1548" width="7.69231" height="15.3846" fill="#996D93"/>
<rect x="30.769" y="46.1548" width="7.69231" height="15.3846" fill="#996D93"/>
<rect x="30.769" y="46.1548" width="7.69231" height="15.3846" fill="#60425E"/>
<rect x="38.4613" y="69.231" width="7.69231" height="15.3846" transform="rotate(-90 38.4613 69.231)" fill="#996D93"/>
<rect x="38.4613" y="69.231" width="7.69231" height="15.3846" transform="rotate(-90 38.4613 69.231)" fill="#996D93"/>
<rect x="38.4613" y="69.231" width="7.69231" height="15.3846" transform="rotate(-90 38.4613 69.231)" fill="#60425E"/>
<rect x="38.4613" y="84.6143" width="7.69231" height="15.3846" transform="rotate(-90 38.4613 84.6143)" fill="#996D93"/>
<rect x="38.4613" y="84.6143" width="7.69231" height="15.3846" transform="rotate(-90 38.4613 84.6143)" fill="#996D93"/>
<rect x="38.4613" y="84.6143" width="7.69231" height="15.3846" transform="rotate(-90 38.4613 84.6143)" fill="#60425E"/>
<rect x="46.1536" y="46.1548" width="7.69231" height="7.69231" fill="#996D93"/>
<rect x="46.1536" y="46.1548" width="7.69231" height="7.69231" fill="#996D93"/>
<rect x="46.1536" y="46.1548" width="7.69231" height="7.69231" fill="#996D93"/>
<rect x="38.4613" y="53.8452" width="7.69231" height="7.69231" fill="#996D93"/>
<rect x="38.4613" y="53.8452" width="7.69231" height="7.69231" fill="#996D93"/>
<rect x="38.4613" y="53.8452" width="7.69231" height="7.69231" fill="#996D93"/>
<rect x="15.3845" y="76.9238" width="7.69231" height="7.69231" fill="#996D93"/>
<rect x="15.3845" y="76.9238" width="7.69231" height="7.69231" fill="#996D93"/>
<rect x="15.3845" y="76.9238" width="7.69231" height="7.69231" fill="#FBB4F8"/>
<rect x="15.3845" y="76.9238" width="7.69231" height="7.69231" fill="#FBB4F8"/>
<rect x="53.8464" y="76.9238" width="7.69231" height="7.69231" fill="#996D93"/>
<rect x="53.8464" y="76.9238" width="7.69231" height="7.69231" fill="#996D93"/>
<rect x="53.8464" y="76.9238" width="7.69231" height="7.69231" fill="#FBB4F8"/>
<rect x="53.8464" y="76.9238" width="7.69231" height="7.69231" fill="#E8D3E7"/>
<rect x="53.8464" y="76.9238" width="7.69231" height="7.69231" fill="#E8D3E7"/>
<rect x="15.3845" y="38.4619" width="7.69231" height="7.69231" fill="#996D93"/>
<rect x="15.3845" y="38.4619" width="7.69231" height="7.69231" fill="#996D93"/>
<rect x="15.3845" y="38.4619" width="7.69231" height="7.69231" fill="#FBB4F8"/>
<rect x="15.3845" y="38.4619" width="7.69231" height="7.69231" fill="#E8D3E7"/>
<rect x="15.3845" y="38.4619" width="7.69231" height="7.69231" fill="#E8D3E7"/>
<rect x="30.769" y="61.5381" width="7.69231" height="7.69231" fill="#996D93"/>
<rect x="30.769" y="61.5381" width="7.69231" height="7.69231" fill="#996D93"/>
<rect x="30.769" y="61.5381" width="7.69231" height="7.69231" fill="#FBB4F8"/>
<rect x="30.769" y="61.5381" width="7.69231" height="7.69231" fill="#E8D3E7"/>
<rect x="30.769" y="61.5381" width="7.69231" height="7.69231" fill="#E8D3E7"/>
<rect x="7.69226" y="84.6143" width="7.69231" height="7.69231" fill="#996D93"/>
<rect x="7.69226" y="84.6143" width="7.69231" height="7.69231" fill="#996D93"/>
<rect x="7.69226" y="84.6143" width="7.69231" height="7.69231" fill="#FBB4F8"/>
<rect x="7.69226" y="84.6143" width="7.69231" height="7.69231" fill="#E8D3E7"/>
<rect x="7.69226" y="84.6143" width="7.69231" height="7.69231" fill="#E8D3E7"/>
<rect x="23.0768" y="69.231" width="7.69231" height="7.69231" fill="#996D93"/>
<rect x="23.0768" y="69.231" width="7.69231" height="7.69231" fill="#996D93"/>
<rect x="23.0768" y="69.231" width="7.69231" height="7.69231" fill="#FBB4F8"/>
<rect x="23.0768" y="69.231" width="7.69231" height="7.69231" fill="#FBB4F8"/>
<rect x="53.8464" y="53.8452" width="7.69231" height="7.69231" fill="#996D93"/>
<rect x="53.8464" y="53.8452" width="7.69231" height="7.69231" fill="#996D93"/>
<rect x="53.8464" y="53.8452" width="7.69231" height="7.69231" fill="#996D93"/>
<rect x="53.8464" y="46.1548" width="7.69231" height="7.69231" fill="#996D93"/>
<rect x="53.8464" y="46.1548" width="7.69231" height="7.69231" fill="#996D93"/>
<rect x="53.8464" y="46.1548" width="7.69231" height="7.69231" fill="#E8D3E7"/>
<rect x="46.1536" y="38.4619" width="7.69231" height="7.69231" fill="#996D93"/>
<rect x="46.1536" y="38.4619" width="7.69231" height="7.69231" fill="#996D93"/>
<rect x="46.1536" y="38.4619" width="7.69231" height="7.69231" fill="#E8D3E7"/>
<rect x="46.1536" y="53.8452" width="7.69231" height="7.69231" fill="#996D93"/>
<rect x="46.1536" y="53.8452" width="7.69231" height="7.69231" fill="#996D93"/>
<rect x="46.1536" y="53.8452" width="7.69231" height="7.69231" fill="#E8D3E7"/>
<rect x="38.4613" y="46.1548" width="7.69231" height="7.69231" fill="#996D93"/>
<rect x="38.4613" y="46.1548" width="7.69231" height="7.69231" fill="#996D93"/>
<rect x="38.4613" y="46.1548" width="7.69231" height="7.69231" fill="#E8D3E7"/>
<rect x="46.1536" y="30.769" width="7.69231" height="7.69231" fill="#996D93"/>
<rect x="46.1536" y="30.769" width="7.69231" height="7.69231" fill="#996D93"/>
<rect x="46.1536" y="30.769" width="7.69231" height="7.69231" fill="#996D93"/>
<rect x="53.8464" y="38.4619" width="7.69231" height="7.69231" fill="#996D93"/>
<rect x="53.8464" y="38.4619" width="7.69231" height="7.69231" fill="#996D93"/>
<rect x="53.8464" y="38.4619" width="7.69231" height="7.69231" fill="#996D93"/>
<rect x="61.5387" y="46.1548" width="7.69231" height="7.69231" fill="#996D93"/>
<rect x="61.5387" y="46.1548" width="7.69231" height="7.69231" fill="#996D93"/>
<rect x="61.5387" y="46.1548" width="7.69231" height="7.69231" fill="#996D93"/>
<rect x="61.5387" y="38.4619" width="7.69231" height="7.69231" fill="#996D93"/>
<rect x="61.5387" y="38.4619" width="7.69231" height="7.69231" fill="#996D93"/>
<rect x="61.5387" y="38.4619" width="7.69231" height="7.69231" fill="#E8D3E7"/>
<rect x="53.8464" y="30.769" width="7.69231" height="7.69231" fill="#996D93"/>
<rect x="53.8464" y="30.769" width="7.69231" height="7.69231" fill="#996D93"/>
<rect x="53.8464" y="30.769" width="7.69231" height="7.69231" fill="#E8D3E7"/>
<rect x="53.8464" y="23.0762" width="7.69231" height="7.69231" fill="#996D93"/>
<rect x="53.8464" y="23.0762" width="7.69231" height="7.69231" fill="#996D93"/>
<rect x="53.8464" y="23.0762" width="7.69231" height="7.69231" fill="#996D93"/>
<rect x="61.5387" y="30.769" width="7.69231" height="7.69231" fill="#996D93"/>
<rect x="61.5387" y="30.769" width="7.69231" height="7.69231" fill="#996D93"/>
<rect x="61.5387" y="30.769" width="7.69231" height="7.69231" fill="#996D93"/>
<rect x="69.231" y="38.4619" width="7.69231" height="7.69231" fill="#996D93"/>
<rect x="69.231" y="38.4619" width="7.69231" height="7.69231" fill="#996D93"/>
<rect x="69.231" y="38.4619" width="7.69231" height="7.69231" fill="#996D93"/>
<rect x="69.231" y="30.769" width="7.69231" height="7.69231" fill="#996D93"/>
<rect x="69.231" y="30.769" width="7.69231" height="7.69231" fill="#996D93"/>
<rect x="69.231" y="30.769" width="7.69231" height="7.69231" fill="#E8D3E7"/>
<rect x="61.5387" y="23.0762" width="7.69231" height="7.69231" fill="#996D93"/>
<rect x="61.5387" y="23.0762" width="7.69231" height="7.69231" fill="#996D93"/>
<rect x="61.5387" y="23.0762" width="7.69231" height="7.69231" fill="#E8D3E7"/>
<rect x="61.5387" y="15.3857" width="7.69231" height="7.69231" fill="#996D93"/>
<rect x="61.5387" y="15.3857" width="7.69231" height="7.69231" fill="#996D93"/>
<rect x="61.5387" y="15.3857" width="7.69231" height="7.69231" fill="#996D93"/>
<rect x="69.231" y="23.0762" width="7.69231" height="7.69231" fill="#996D93"/>
<rect x="69.231" y="23.0762" width="7.69231" height="7.69231" fill="#996D93"/>
<rect x="69.231" y="23.0762" width="7.69231" height="7.69231" fill="#996D93"/>
<rect x="76.9232" y="30.769" width="7.69231" height="7.69231" fill="#996D93"/>
<rect x="76.9232" y="30.769" width="7.69231" height="7.69231" fill="#996D93"/>
<rect x="76.9232" y="30.769" width="7.69231" height="7.69231" fill="#996D93"/>
<rect x="76.9232" y="23.0762" width="7.69231" height="7.69231" fill="#996D93"/>
<rect x="76.9232" y="23.0762" width="7.69231" height="7.69231" fill="#996D93"/>
<rect x="76.9232" y="23.0762" width="7.69231" height="7.69231" fill="#E8D3E7"/>
<rect x="69.231" y="15.3857" width="7.69231" height="7.69231" fill="#996D93"/>
<rect x="69.231" y="15.3857" width="7.69231" height="7.69231" fill="#996D93"/>
<rect x="69.231" y="15.3857" width="7.69231" height="7.69231" fill="#E8D3E7"/>
<rect x="69.231" y="7.69287" width="7.69231" height="7.69231" fill="#996D93"/>
<rect x="69.231" y="7.69287" width="7.69231" height="7.69231" fill="#996D93"/>
<rect x="69.231" y="7.69287" width="7.69231" height="7.69231" fill="#996D93"/>
<rect x="76.9232" width="7.69231" height="7.69231" fill="#996D93"/>
<rect x="76.9232" width="7.69231" height="7.69231" fill="#996D93"/>
<rect x="76.9232" width="7.69231" height="7.69231" fill="#996D93"/>
<rect x="84.6155" width="15.3846" height="15.3846" fill="#996D93"/>
<rect x="84.6155" width="15.3846" height="15.3846" fill="#996D93"/>
<rect x="84.6155" width="15.3846" height="15.3846" fill="#996D93"/>
<rect x="92.3077" y="15.3857" width="7.69231" height="7.69231" fill="#996D93"/>
<rect x="92.3077" y="15.3857" width="7.69231" height="7.69231" fill="#996D93"/>
<rect x="92.3077" y="15.3857" width="7.69231" height="7.69231" fill="#996D93"/>
<rect x="76.9232" y="15.3857" width="7.69231" height="7.69231" fill="#996D93"/>
<rect x="76.9232" y="15.3857" width="7.69231" height="7.69231" fill="#996D93"/>
<rect x="76.9232" y="15.3857" width="7.69231" height="7.69231" fill="#996D93"/>
<rect x="84.6155" y="23.0762" width="7.69231" height="7.69231" fill="#996D93"/>
<rect x="84.6155" y="23.0762" width="7.69231" height="7.69231" fill="#996D93"/>
<rect x="84.6155" y="23.0762" width="7.69231" height="7.69231" fill="#996D93"/>
<rect x="84.6155" y="15.3857" width="7.69231" height="7.69231" fill="#996D93"/>
<rect x="84.6155" y="15.3857" width="7.69231" height="7.69231" fill="#996D93"/>
<rect x="84.6155" y="15.3857" width="7.69231" height="7.69231" fill="#E8D3E7"/>
<rect x="76.9232" y="7.69287" width="7.69231" height="7.69231" fill="#996D93"/>
<rect x="76.9232" y="7.69287" width="7.69231" height="7.69231" fill="#996D93"/>
<rect x="76.9232" y="7.69287" width="7.69231" height="7.69231" fill="#E8D3E7"/>
</svg>
